<svg width="45" height="45" viewBox="0 0 45 45" fill="none" xmlns="http://www.w3.org/2000/svg">
<path d="M44.35 22.4993C44.35 10.4509 34.5478 0.650008 22.5007 0.650007C10.4522 0.650006 0.650004 10.4508 0.650003 22.4993C0.650002 34.5479 10.4536 44.3487 22.5007 44.3487C34.5478 44.3487 44.35 34.5478 44.35 22.4993ZM41.7614 22.4993C41.7614 33.1198 33.1198 41.76 22.5007 41.76C11.8802 41.76 3.23863 33.1198 3.23863 22.4993C3.23863 11.879 11.8816 3.23863 22.5007 3.23863C33.1198 3.23864 41.7614 11.8789 41.7614 22.4993Z" fill="white" stroke="white" stroke-width="0.7"/>
<path d="M35.5549 22.4993C34.2452 22.4993 33.1834 23.5611 33.1834 24.8709C33.1834 26.1807 34.2452 27.2425 35.5549 27.2425C36.8647 27.2425 37.9265 26.1807 37.9265 24.8709C37.9265 23.5611 36.8647 22.4993 35.5549 22.4993Z" fill="white"/>
<path d="M9.45167 22.4993C8.14188 22.4993 7.08009 23.5611 7.08009 24.8709C7.08009 26.1807 8.14188 27.2425 9.45167 27.2425C10.7615 27.2425 11.8232 26.1807 11.8232 24.8709C11.8232 23.5611 10.7615 22.4993 9.45167 22.4993Z" fill="white"/>
<path d="M35.2176 15.8149L35.5289 15.6579L35.3732 15.346C34.1796 12.955 32.3418 10.9449 30.067 9.54255C27.7924 8.14034 25.1714 7.40135 22.4993 7.40892C19.8275 7.40161 17.2068 8.14072 14.9325 9.54292C12.6579 10.9453 10.8203 12.9552 9.62681 15.346L9.47109 15.6579L9.78244 15.8149L11.4687 16.6647L11.7816 16.8224L11.939 16.5093C12.9228 14.5516 14.4313 12.9059 16.2963 11.7559C18.1612 10.6059 20.309 9.99693 22.5 9.99693C24.691 9.99693 26.8389 10.6059 28.7038 11.7559C30.5687 12.9059 32.0773 14.5516 33.061 16.5093L33.2184 16.8224L33.5313 16.6647L35.2176 15.8149Z" fill="white" stroke="white" stroke-width="0.7"/>
</svg>
